<mxfile host="Electron" modified="2025-02-13T04:02:49.655Z" agent="Mozilla/5.0 (Windows NT 10.0; Win64; x64) AppleWebKit/537.36 (KHTML, like Gecko) draw.io/24.1.0 Chrome/120.0.6099.109 Electron/28.1.0 Safari/537.36" etag="to5uYRNb-OwPJO22ZWMe" version="24.1.0" type="device">
  <diagram name="第 1 页" id="oxtemRFlCOfSgqLUhdTI">
    <mxGraphModel dx="574" dy="334" grid="0" gridSize="10" guides="1" tooltips="1" connect="1" arrows="1" fold="1" page="1" pageScale="1" pageWidth="827" pageHeight="1169" math="0" shadow="0">
      <root>
        <mxCell id="0" />
        <mxCell id="1" parent="0" />
        <mxCell id="m5g5663PfMs9OOaRWj8z-1" value="" style="rounded=0;whiteSpace=wrap;html=1;fillColor=#60a917;fontColor=#ffffff;strokeColor=#2D7600;" vertex="1" parent="1">
          <mxGeometry x="97" y="70" width="23" height="23" as="geometry" />
        </mxCell>
        <mxCell id="m5g5663PfMs9OOaRWj8z-2" value="" style="rounded=0;whiteSpace=wrap;html=1;fillColor=#60a917;fontColor=#ffffff;strokeColor=#2D7600;" vertex="1" parent="1">
          <mxGeometry x="120" y="70" width="23" height="23" as="geometry" />
        </mxCell>
        <mxCell id="m5g5663PfMs9OOaRWj8z-3" value="" style="rounded=0;whiteSpace=wrap;html=1;fillColor=#60a917;fontColor=#ffffff;strokeColor=#2D7600;" vertex="1" parent="1">
          <mxGeometry x="143" y="70" width="23" height="23" as="geometry" />
        </mxCell>
        <mxCell id="m5g5663PfMs9OOaRWj8z-4" value="" style="rounded=0;whiteSpace=wrap;html=1;fillColor=#d80073;fontColor=#ffffff;strokeColor=#A50040;" vertex="1" parent="1">
          <mxGeometry x="166" y="70" width="23" height="23" as="geometry" />
        </mxCell>
        <mxCell id="m5g5663PfMs9OOaRWj8z-5" value="" style="rounded=0;whiteSpace=wrap;html=1;fillColor=#d80073;fontColor=#ffffff;strokeColor=#A50040;" vertex="1" parent="1">
          <mxGeometry x="189" y="70" width="23" height="23" as="geometry" />
        </mxCell>
        <mxCell id="m5g5663PfMs9OOaRWj8z-6" value="" style="rounded=0;whiteSpace=wrap;html=1;fillColor=#d80073;fontColor=#ffffff;strokeColor=#A50040;" vertex="1" parent="1">
          <mxGeometry x="212" y="70" width="23" height="23" as="geometry" />
        </mxCell>
        <mxCell id="m5g5663PfMs9OOaRWj8z-7" value="" style="rounded=0;whiteSpace=wrap;html=1;fillColor=#d80073;fontColor=#ffffff;strokeColor=#A50040;" vertex="1" parent="1">
          <mxGeometry x="235" y="70" width="23" height="23" as="geometry" />
        </mxCell>
        <mxCell id="m5g5663PfMs9OOaRWj8z-8" value="" style="rounded=0;whiteSpace=wrap;html=1;fillColor=#60a917;fontColor=#ffffff;strokeColor=#2D7600;" vertex="1" parent="1">
          <mxGeometry x="258" y="70" width="23" height="23" as="geometry" />
        </mxCell>
        <mxCell id="m5g5663PfMs9OOaRWj8z-9" value="" style="rounded=0;whiteSpace=wrap;html=1;fillColor=#60a917;fontColor=#ffffff;strokeColor=#2D7600;" vertex="1" parent="1">
          <mxGeometry x="281" y="70" width="23" height="23" as="geometry" />
        </mxCell>
        <mxCell id="m5g5663PfMs9OOaRWj8z-10" value="" style="rounded=0;whiteSpace=wrap;html=1;fillColor=#60a917;fontColor=#ffffff;strokeColor=#2D7600;" vertex="1" parent="1">
          <mxGeometry x="304" y="70" width="23" height="23" as="geometry" />
        </mxCell>
        <mxCell id="m5g5663PfMs9OOaRWj8z-11" value="" style="rounded=0;whiteSpace=wrap;html=1;fillColor=#d80073;fontColor=#ffffff;strokeColor=#A50040;" vertex="1" parent="1">
          <mxGeometry x="327" y="70" width="23" height="23" as="geometry" />
        </mxCell>
        <mxCell id="m5g5663PfMs9OOaRWj8z-12" value="" style="rounded=0;whiteSpace=wrap;html=1;fillColor=#d80073;fontColor=#ffffff;strokeColor=#A50040;" vertex="1" parent="1">
          <mxGeometry x="350" y="70" width="23" height="23" as="geometry" />
        </mxCell>
        <mxCell id="m5g5663PfMs9OOaRWj8z-13" value="" style="rounded=0;whiteSpace=wrap;html=1;fillColor=#d80073;fontColor=#ffffff;strokeColor=#A50040;" vertex="1" parent="1">
          <mxGeometry x="373" y="70" width="23" height="23" as="geometry" />
        </mxCell>
        <mxCell id="m5g5663PfMs9OOaRWj8z-14" value="" style="rounded=0;whiteSpace=wrap;html=1;fillColor=#d80073;fontColor=#ffffff;strokeColor=#A50040;" vertex="1" parent="1">
          <mxGeometry x="396" y="70" width="23" height="23" as="geometry" />
        </mxCell>
        <mxCell id="m5g5663PfMs9OOaRWj8z-15" value="..." style="rounded=0;whiteSpace=wrap;html=1;" vertex="1" parent="1">
          <mxGeometry x="419" y="70" width="23" height="23" as="geometry" />
        </mxCell>
        <mxCell id="m5g5663PfMs9OOaRWj8z-17" value="顶点位置" style="text;html=1;align=center;verticalAlign=middle;resizable=0;points=[];autosize=1;strokeColor=none;fillColor=none;fontSize=8;" vertex="1" parent="1">
          <mxGeometry x="106.5" y="46" width="50" height="22" as="geometry" />
        </mxCell>
        <mxCell id="m5g5663PfMs9OOaRWj8z-19" value="顶点颜色" style="text;html=1;align=center;verticalAlign=middle;resizable=0;points=[];autosize=1;strokeColor=none;fillColor=none;fontSize=8;" vertex="1" parent="1">
          <mxGeometry x="180" y="46" width="50" height="22" as="geometry" />
        </mxCell>
        <mxCell id="m5g5663PfMs9OOaRWj8z-23" value="stride = 7 * 4" style="text;html=1;align=center;verticalAlign=middle;resizable=0;points=[];autosize=1;strokeColor=none;fillColor=none;fontSize=8;" vertex="1" parent="1">
          <mxGeometry x="304" y="97" width="63" height="22" as="geometry" />
        </mxCell>
        <mxCell id="m5g5663PfMs9OOaRWj8z-24" value="根据数据类型，每个格子4字节" style="text;html=1;align=center;verticalAlign=middle;resizable=0;points=[];autosize=1;strokeColor=none;fillColor=none;fontSize=8;" vertex="1" parent="1">
          <mxGeometry x="91.5" y="26" width="126" height="22" as="geometry" />
        </mxCell>
        <mxCell id="m5g5663PfMs9OOaRWj8z-25" value="&lt;div style=&quot;color: rgb(204, 204, 204); background-color: rgb(36, 36, 36); font-family: Consolas, &amp;quot;Courier New&amp;quot;, monospace; font-weight: 600; line-height: 22px; white-space-collapse: preserve; font-size: 8px;&quot;&gt;gl.&lt;span style=&quot;color: #ffc66d;&quot;&gt;vertexAttribPointer&lt;/span&gt;(a_position, &lt;span style=&quot;color: #7a9ec2;&quot;&gt;3&lt;/span&gt;, gl.FLOAT, &lt;span style=&quot;color: #cc8242;&quot;&gt;false&lt;/span&gt;, &lt;span style=&quot;color: #7a9ec2;&quot;&gt;4&lt;/span&gt; * &lt;span style=&quot;color: #7a9ec2;&quot;&gt;7&lt;/span&gt;, &lt;span style=&quot;color: #7a9ec2;&quot;&gt;0&lt;/span&gt;);&lt;/div&gt;" style="text;html=1;align=center;verticalAlign=middle;resizable=0;points=[];autosize=1;strokeColor=none;fillColor=none;" vertex="1" parent="1">
          <mxGeometry x="91.5" y="139" width="304" height="34" as="geometry" />
        </mxCell>
        <mxCell id="m5g5663PfMs9OOaRWj8z-26" value="&lt;div style=&quot;color: rgb(204, 204, 204); background-color: rgb(36, 36, 36); font-family: Consolas, &amp;quot;Courier New&amp;quot;, monospace; font-weight: 600; font-size: 8px; line-height: 22px; white-space: pre;&quot;&gt;&lt;div style=&quot;font-size: 8px;&quot;&gt;&lt;span style=&quot;color: rgb(204, 204, 204); font-size: 8px;&quot;&gt;gl.&lt;/span&gt;&lt;span style=&quot;color: rgb(255, 198, 109); font-size: 8px;&quot;&gt;vertexAttribPointer&lt;/span&gt;&lt;span style=&quot;color: rgb(204, 204, 204); font-size: 8px;&quot;&gt;(a_color, &lt;/span&gt;&lt;span style=&quot;color: rgb(122, 158, 194); font-size: 8px;&quot;&gt;4&lt;/span&gt;&lt;span style=&quot;color: rgb(204, 204, 204); font-size: 8px;&quot;&gt;, gl.FLOAT, &lt;/span&gt;&lt;span style=&quot;color: rgb(204, 130, 66); font-size: 8px;&quot;&gt;false&lt;/span&gt;&lt;span style=&quot;color: rgb(204, 204, 204); font-size: 8px;&quot;&gt;, &lt;/span&gt;&lt;span style=&quot;color: rgb(122, 158, 194); font-size: 8px;&quot;&gt;4&lt;/span&gt;&lt;span style=&quot;color: rgb(204, 204, 204); font-size: 8px;&quot;&gt; * &lt;/span&gt;&lt;span style=&quot;color: rgb(122, 158, 194); font-size: 8px;&quot;&gt;7&lt;/span&gt;&lt;span style=&quot;color: rgb(204, 204, 204); font-size: 8px;&quot;&gt;, &lt;/span&gt;&lt;span style=&quot;color: rgb(122, 158, 194); font-size: 8px;&quot;&gt;4&lt;/span&gt;&lt;span style=&quot;color: rgb(204, 204, 204); font-size: 8px;&quot;&gt; * &lt;/span&gt;&lt;span style=&quot;color: rgb(122, 158, 194); font-size: 8px;&quot;&gt;3&lt;/span&gt;&lt;span style=&quot;color: rgb(204, 204, 204); font-size: 8px;&quot;&gt;);&lt;/span&gt;&lt;/div&gt;&lt;/div&gt;" style="text;whiteSpace=wrap;html=1;fontSize=8;" vertex="1" parent="1">
          <mxGeometry x="99.5" y="170" width="295" height="31" as="geometry" />
        </mxCell>
        <mxCell id="m5g5663PfMs9OOaRWj8z-27" value="" style="group;fontSize=7;strokeWidth=1;" vertex="1" connectable="0" parent="1">
          <mxGeometry x="258" y="97" width="160.43" height="11" as="geometry" />
        </mxCell>
        <mxCell id="m5g5663PfMs9OOaRWj8z-20" value="" style="endArrow=none;html=1;rounded=0;" edge="1" parent="m5g5663PfMs9OOaRWj8z-27">
          <mxGeometry width="50" height="50" relative="1" as="geometry">
            <mxPoint y="11" as="sourcePoint" />
            <mxPoint y="1.1" as="targetPoint" />
          </mxGeometry>
        </mxCell>
        <mxCell id="m5g5663PfMs9OOaRWj8z-21" value="" style="endArrow=none;html=1;rounded=0;" edge="1" parent="m5g5663PfMs9OOaRWj8z-27">
          <mxGeometry width="50" height="50" relative="1" as="geometry">
            <mxPoint x="160.43" y="9.9" as="sourcePoint" />
            <mxPoint x="160.43" as="targetPoint" />
          </mxGeometry>
        </mxCell>
        <mxCell id="m5g5663PfMs9OOaRWj8z-22" value="" style="endArrow=classic;startArrow=classic;html=1;rounded=0;" edge="1" parent="m5g5663PfMs9OOaRWj8z-27">
          <mxGeometry width="50" height="50" relative="1" as="geometry">
            <mxPoint y="5.5" as="sourcePoint" />
            <mxPoint x="159" y="5.5" as="targetPoint" />
          </mxGeometry>
        </mxCell>
        <mxCell id="m5g5663PfMs9OOaRWj8z-30" value="" style="curved=1;endArrow=classic;html=1;rounded=0;" edge="1" parent="1">
          <mxGeometry width="50" height="50" relative="1" as="geometry">
            <mxPoint x="256" y="151" as="sourcePoint" />
            <mxPoint x="134" y="96" as="targetPoint" />
            <Array as="points">
              <mxPoint x="228" y="125" />
              <mxPoint x="138" y="110" />
            </Array>
          </mxGeometry>
        </mxCell>
        <mxCell id="m5g5663PfMs9OOaRWj8z-33" value="" style="endArrow=classic;html=1;rounded=0;exitX=0.86;exitY=0.353;exitDx=0;exitDy=0;exitPerimeter=0;" edge="1" parent="1" source="m5g5663PfMs9OOaRWj8z-25" target="m5g5663PfMs9OOaRWj8z-23">
          <mxGeometry width="50" height="50" relative="1" as="geometry">
            <mxPoint x="325.00333333333333" y="146" as="sourcePoint" />
            <mxPoint x="363.3366666666667" y="126" as="targetPoint" />
          </mxGeometry>
        </mxCell>
        <mxCell id="m5g5663PfMs9OOaRWj8z-34" value="" style="endArrow=classic;html=1;rounded=0;entryX=0;entryY=1;entryDx=0;entryDy=0;exitX=0.907;exitY=0.387;exitDx=0;exitDy=0;exitPerimeter=0;" edge="1" parent="1" source="m5g5663PfMs9OOaRWj8z-26" target="m5g5663PfMs9OOaRWj8z-4">
          <mxGeometry width="50" height="50" relative="1" as="geometry">
            <mxPoint x="312" y="129" as="sourcePoint" />
            <mxPoint x="354" y="129" as="targetPoint" />
          </mxGeometry>
        </mxCell>
        <mxCell id="m5g5663PfMs9OOaRWj8z-35" value="" style="endArrow=classic;html=1;rounded=0;exitX=0.486;exitY=0.387;exitDx=0;exitDy=0;exitPerimeter=0;" edge="1" parent="1" source="m5g5663PfMs9OOaRWj8z-26">
          <mxGeometry width="50" height="50" relative="1" as="geometry">
            <mxPoint x="363" y="161" as="sourcePoint" />
            <mxPoint x="212" y="99" as="targetPoint" />
          </mxGeometry>
        </mxCell>
        <mxCell id="m5g5663PfMs9OOaRWj8z-36" value="" style="endArrow=none;html=1;rounded=0;fillColor=#60a917;strokeColor=#2D7600;" edge="1" parent="1">
          <mxGeometry width="50" height="50" relative="1" as="geometry">
            <mxPoint x="165" y="97" as="sourcePoint" />
            <mxPoint x="98" y="96" as="targetPoint" />
          </mxGeometry>
        </mxCell>
        <mxCell id="m5g5663PfMs9OOaRWj8z-37" value="" style="endArrow=none;html=1;rounded=0;fillColor=#d80073;strokeColor=#A50040;" edge="1" parent="1">
          <mxGeometry width="50" height="50" relative="1" as="geometry">
            <mxPoint x="255" y="97" as="sourcePoint" />
            <mxPoint x="168" y="97" as="targetPoint" />
          </mxGeometry>
        </mxCell>
      </root>
    </mxGraphModel>
  </diagram>
</mxfile>
